<svg width="1242" height="921" viewBox="0 0 1242 921" fill="none" xmlns="http://www.w3.org/2000/svg">
<path d="M1241.65 463.8C1240.98 469.83 1237.35 473.73 1232.35 476.59C1222.38 482.29 1212.38 487.93 1202.39 493.6C1185.02 503.45 1167.64 513.28 1150.29 523.16C1142.33 527.7 1138.7 534.76 1140.55 543.15C1141.24 546.27 1142.9 549.41 1144.87 551.97C1159.68 571.24 1174.68 590.38 1189.63 609.55C1191.17 611.52 1192.76 613.45 1194.22 615.47C1202.43 626.92 1196.88 641.69 1183.11 644.64C1169.94 647.46 1156.71 649.99 1143.51 652.63C1119.7 657.41 1095.87 662.11 1072.08 666.98C1060.46 669.36 1054.74 677.37 1056.6 689.18C1059.52 707.75 1062.88 726.25 1066.03 744.79C1067.29 752.17 1068.72 759.53 1069.69 766.95C1071.36 779.74 1061.78 789.12 1048.88 787.89C1028.66 785.97 1008.43 784.28 988.2 782.44C967.97 780.6 947.76 778.64 927.54 776.85C924.42 776.57 921.13 776.35 918.12 777.03C911.26 778.57 907.02 783.15 904.57 789.74C896.68 810.95 888.64 832.1 880.65 853.27C878.01 860.27 875.52 867.35 872.62 874.25C869.38 881.97 861.74 886.43 853.8 885.32C851.05 884.94 848.36 883.82 845.77 882.75C816.41 870.64 787.06 858.48 757.72 846.32C750.19 843.2 742.67 840.06 735.15 836.93C726.94 833.52 719.73 834.73 713.13 840.96C687.94 864.72 662.65 888.39 637.3 911.98C634.42 914.66 630.91 916.64 627.73 919C627.29 919.33 627.1 919.99 626.79 920.5H616.79C614.52 918.97 612.11 917.59 610 915.87C607.3 913.66 604.8 911.2 602.25 908.81C578.32 886.38 554.33 864.03 530.54 841.46C523.51 834.79 516.09 833.52 507.26 837.21C470.28 852.64 433.23 867.92 396.23 883.29C391.99 885.05 387.73 886.22 383.13 885.01C376.52 883.27 372.14 879.13 369.75 872.72C364.16 857.76 358.48 842.83 352.84 827.89C348.08 815.28 343.37 802.66 338.57 790.07C334.67 779.85 328.25 775.71 317.37 776.67C297.48 778.42 277.6 780.38 257.71 782.21C236 784.2 214.29 786.23 192.56 788.06C180.73 789.06 171.29 778.33 173.31 766.33C176.67 746.32 180.18 726.33 183.63 706.33C184.65 700.43 185.7 694.53 186.69 688.63C188.35 678.74 182.64 669.66 172.83 667.52C156.75 664.01 140.59 660.91 124.45 657.65C103.1 653.34 81.78 648.84 60.38 644.83C46.64 642.26 40.23 626.07 49.38 614.62C65.49 594.46 81.16 573.96 97.01 553.6C97.83 552.55 98.68 551.52 99.44 550.43C105.9 541.11 103.47 529.49 93.62 523.73C82.56 517.26 71.37 511.03 60.23 504.7C44.61 495.83 29.02 486.89 13.33 478.14C8.08004 475.21 3.55004 471.84 1.49004 465.91C1.32004 465.42 0.540039 465.13 0.0400391 464.75C0.0400391 461.75 0.0400391 458.75 0.0400391 455.75C0.670039 455.07 1.58004 454.5 1.89004 453.7C3.81004 448.74 7.56004 445.65 12.03 443.12C35.06 430.1 58.06 417.02 81.08 403.97C84.99 401.75 88.92 399.57 92.8 397.31C103.89 390.85 106.36 378.98 98.54 368.88C84.17 350.31 69.69 331.84 55.25 313.32C53.1 310.56 50.86 307.87 48.82 305.03C40.61 293.6 46.19 278.75 59.95 275.87C79.65 271.74 99.4 267.88 119.13 263.92C136.41 260.46 153.72 257.11 170.99 253.55C182.9 251.09 188.45 242.39 186.36 230.35C181.94 204.94 177.58 179.52 173.3 154.09C171.21 141.67 181.04 131.39 193.66 132.54C225.33 135.42 257 138.25 288.66 141.13C297.78 141.96 306.89 142.86 316 143.75C320.7 144.21 325.3 144.22 329.6 141.79C334.03 139.28 336.7 135.49 338.47 130.78C348.62 103.67 358.84 76.58 369.1 49.51C370.04 47.04 371.12 44.53 372.65 42.4C377.58 35.54 386.14 33.27 394.49 36.61C404.37 40.56 414.17 44.72 424 48.8C451.5 60.19 479.04 71.48 506.47 83.05C515.85 87 523.57 85.72 531.06 78.6C556.27 54.62 581.78 30.94 607.15 7.12C610.23 4.23 613.47 1.71 617.74 0.87C620.43 0.89 623.12 0.9 625.81 0.92C630.39 2.01 633.7 5.01 637 8.12C662.36 31.94 687.81 55.68 713.12 79.56C719.9 85.95 727.22 86.89 735.61 83.4C772.61 67.99 809.65 52.67 846.66 37.29C850.73 35.6 854.84 34.36 859.27 35.36C866.35 36.95 870.94 41.34 873.46 48.1C878.87 62.6 884.35 77.07 889.8 91.55C894.73 104.63 899.65 117.71 904.61 130.77C908.27 140.43 914.65 144.69 925.04 143.87C940.64 142.64 956.21 141.11 971.79 139.68C984.55 138.5 997.31 137.25 1010.07 136.08C1023 134.9 1035.94 133.87 1048.87 132.63C1062.08 131.37 1071.62 140.88 1069.61 154.05C1067.02 170.99 1063.94 187.85 1061.06 204.75C1059.55 213.61 1057.97 222.45 1056.54 231.32C1055.2 239.66 1057.57 246.61 1065.11 250.96C1067.77 252.49 1070.98 253.25 1074.04 253.87C1110.39 261.25 1146.76 268.48 1183.11 275.89C1194.12 278.14 1200.41 288.35 1197.33 298.82C1196.56 301.45 1195.01 304 1193.31 306.2C1177.93 326.09 1162.44 345.89 1146.98 365.72C1145.96 367.03 1144.91 368.33 1143.93 369.67C1137.15 379 1139.48 390.94 1149.46 396.83C1159.2 402.58 1169.11 408.05 1178.95 413.64C1196.61 423.66 1214.26 433.68 1231.92 443.69C1237.08 446.61 1240.95 450.48 1241.68 456.72C1241.68 459.09 1241.68 461.45 1241.68 463.82L1241.65 463.8ZM1048.7 777.78C1048.75 777.96 1048.8 778.13 1048.85 778.31C1051.37 777.69 1054.18 777.6 1056.33 776.35C1060.24 774.08 1060.12 770.06 1059.43 766.11C1055.61 743.97 1051.74 721.84 1048 699.68C1047.09 694.28 1045.82 688.77 1046.1 683.38C1046.79 669.66 1056.05 659.94 1070.51 656.97C1087.62 653.46 1104.76 650.11 1121.89 646.69C1140.81 642.91 1159.74 639.18 1178.65 635.33C1188.33 633.36 1190.57 627.32 1184.61 619.6C1180.34 614.06 1176.03 608.56 1171.73 603.04C1159.86 587.8 1147.92 572.61 1136.13 557.31C1125.23 543.16 1128.95 524.09 1144.23 515.01C1145.52 514.24 1146.83 513.52 1148.13 512.78C1169.41 500.72 1190.7 488.65 1211.98 476.59C1216.9 473.8 1221.67 470.69 1226.77 468.27C1233.32 465.16 1234.49 455.92 1226.58 452.23C1225.53 451.74 1224.53 451.12 1223.52 450.54C1197.18 435.58 1170.78 420.73 1144.52 405.63C1128.77 396.58 1125.14 377.45 1136.24 363.07C1145.7 350.81 1155.27 338.63 1164.79 326.41C1171.55 317.74 1178 308.81 1185.15 300.48C1189.92 294.92 1187.87 286.13 1179.92 285.51C1179.43 285.47 1178.97 285.21 1178.48 285.11C1154.67 280.35 1130.86 275.6 1107.05 270.83C1094 268.22 1080.91 265.78 1067.93 262.88C1053.22 259.59 1044.09 245.91 1046.38 231.02C1047.82 221.64 1049.47 212.3 1051.08 202.95C1053.86 186.71 1056.73 170.48 1059.46 154.23C1060.85 145.96 1057.46 142.28 1049.04 142.81C1043.39 143.17 1037.75 143.7 1032.12 144.22C1015.54 145.74 998.96 147.3 982.39 148.82C965.31 150.39 948.25 152.04 931.16 153.45C926.21 153.86 921.05 154.32 916.26 153.37C906.26 151.41 899.3 145.18 895.66 135.59C885.37 108.52 875.16 81.43 864.93 54.34C861.22 44.52 858.46 43.3 848.8 47.31C812.39 62.43 775.97 77.5 739.6 92.71C726.79 98.06 715.7 95.89 705.64 86.41C680.08 62.3 654.32 38.4 628.84 14.2C624.35 9.94 618.69 9.97 614.41 14.05C589.06 38.14 563.39 61.89 537.99 85.93C527.68 95.69 516.49 98.16 503.24 92.6C466.42 77.17 429.5 61.98 392.62 46.71C385.08 43.59 381.67 45.04 378.73 52.68C375.39 61.38 372.12 70.11 368.84 78.83C361.8 97.52 354.66 116.17 347.76 134.91C343.48 146.52 332.28 154.94 319.13 153.98C316.47 153.79 313.81 153.64 311.16 153.4C301.87 152.57 292.59 151.7 283.3 150.85C266.72 149.33 250.14 147.81 233.55 146.31C220.28 145.11 207.02 143.83 193.74 142.79C185.66 142.16 182.25 146.03 183.59 153.89C187.9 179.16 192.31 204.41 196.44 229.7C197.07 233.56 197.12 237.79 196.23 241.57C193.34 253.82 185.19 260.96 172.96 263.46C159.1 266.29 145.22 269 131.35 271.78C108.67 276.33 85.99 280.83 63.33 285.48C54.66 287.26 52.56 293.46 58.02 300.51C60.57 303.8 63.15 307.07 65.71 310.35C79.23 327.69 92.73 345.03 106.26 362.35C110.04 367.19 112.67 372.5 112.95 378.72C113.5 390.84 108.48 399.95 97.91 405.96C71.14 421.17 44.37 436.38 17.6 451.59C16.3 452.33 14.92 453 13.79 453.96C9.77004 457.37 9.82004 463.26 13.89 466.6C15.04 467.54 16.4 468.22 17.71 468.96C31.74 476.94 45.78 484.91 59.82 492.88C72.7 500.19 85.64 507.41 98.45 514.84C108.57 520.72 113.38 529.68 112.96 541.4C112.72 548.2 109.66 553.81 105.57 559.04C89.66 579.37 73.79 599.73 57.94 620.1C52.49 627.1 54.71 633.2 63.45 635.05C74.36 637.35 85.3 639.47 96.23 641.68C122.16 646.91 148.13 652 174.02 657.45C190.4 660.9 199.29 674.92 196.4 691.45C191.98 716.7 187.72 741.97 183.41 767.24C182.24 774.08 185.85 778.1 192.86 777.79C195.35 777.68 197.84 777.44 200.33 777.22C213.43 776.03 226.53 774.83 239.63 773.63C256.21 772.11 272.79 770.58 289.37 769.08C299.15 768.2 308.94 767.35 318.73 766.55C323.46 766.16 328.02 766.87 332.36 768.88C340.04 772.43 344.96 778.34 347.9 786.23C357.85 812.89 368.08 839.45 377.89 866.16C381.26 875.34 385.41 876.99 394.14 873.31C430.78 857.88 467.55 842.77 504.27 827.53C516.31 822.53 527.04 824.58 536.55 833.38C541.31 837.79 546.02 842.27 550.76 846.71C572.02 866.64 593.38 886.47 614.48 906.57C618.46 910.37 624.25 910.78 628.54 906.54C637.78 897.42 647.43 888.71 656.9 879.82C673.42 864.33 689.97 848.86 706.44 833.32C711.2 828.83 716.67 826.02 723.16 825.07C729.17 824.19 734.67 825.84 740.12 828.1C772.22 841.45 804.33 854.76 836.45 868.07C841.83 870.3 847.18 872.61 852.62 874.65C857.34 876.42 861.22 874.71 863.37 870.22C863.87 869.17 864.2 868.05 864.61 866.96C874.71 840.18 884.99 813.46 894.82 786.57C898.91 775.39 909.46 764.95 925.8 766.59C933.42 767.35 941.06 767.96 948.68 768.65C964.93 770.12 981.18 771.58 997.43 773.06C1014.51 774.62 1031.58 776.21 1048.66 777.78H1048.7Z" fill="#FF5F4F"/>
<path d="M625.78 0.92C623.09 0.9 620.4 0.89 617.71 0.87C617.76 0.58 617.77 0.29 617.76 0H625.76C625.72 0.31 625.73 0.61 625.79 0.92H625.78Z" fill="#FFD4D0"/>
</svg>
