<svg width="1409" height="367" viewBox="0 0 1409 367" fill="none" xmlns="http://www.w3.org/2000/svg">
<path d="M0 191.818C0 100.018 72.859 23.852 164.43 23.852C256.002 23.852 328.264 100.619 328.264 191.818C328.264 283.017 255.405 359.784 164.43 359.784C73.4562 359.784 0 283.618 0 191.818ZM164.43 270.79C208.624 270.79 240.674 235.113 240.674 191.818C240.674 148.524 208.624 112.846 164.43 112.846C120.237 112.846 86.9929 148.123 86.9929 191.818C86.9929 235.513 120.835 270.79 164.43 270.79Z" fill="#FF5B4A"/>
<path d="M396.544 37.6821L483.139 49.7084C483.139 49.7084 460.246 133.291 454.473 195.226C449.297 251.749 455.668 273.797 466.019 273.797C478.56 273.797 498.666 240.925 514.791 199.836C522.156 180.193 528.527 158.946 532.508 136.898H618.505C622.487 158.345 628.26 178.389 635.625 197.43C652.347 241.326 672.254 272.995 685.392 272.995C696.938 272.995 702.512 248.742 695.744 185.805C689.374 126.275 669.467 53.1158 668.87 52.5145L754.867 37.4817C754.867 38.6843 818.967 258.564 749.692 334.128C739.34 345.754 727.993 353.771 716.447 358.983H715.85C705.498 362.991 695.147 365.396 685.392 365.396C635.625 365.396 596.011 317.492 575.308 276.603C554.007 317.492 516.782 365.396 466.417 365.396C440.14 365.396 418.84 353.37 401.72 334.329C331.847 258.764 396.544 38.8848 396.544 37.6821Z" fill="#FF5B4A"/>
<path d="M911.335 22.0481L911.932 48.1049C934.228 29.0634 962.297 18.0393 995.541 22.6494C1127.32 39.8869 1080.34 240.725 1080.34 241.326L997.731 237.919C997.731 237.919 1019.43 115.051 983.995 110.441C942.788 104.628 915.316 201.038 916.312 236.315L918.701 357.98L831.509 359.784L824.143 23.852L911.335 22.0481Z" fill="#FF5B4A"/>
<path d="M1230.44 132.89C1269.46 128.881 1299.32 136.297 1321.02 145.517C1318.63 119.46 1303.9 95.8089 1278.02 89.5953C1252.14 83.7826 1232.23 99.4167 1220.69 121.866L1142.25 82.58C1167.54 32.4708 1213.92 0 1267.27 0C1348.09 0 1405.42 67.5472 1408.21 147.121C1410.6 206.65 1407.02 273.596 1404.83 320.298C1403.63 345.152 1404.83 357.179 1404.83 364.194L1317.63 367C1317.04 357.78 1315.84 349.161 1317.04 330.12C1290.76 349.161 1265.48 360.786 1232.83 360.786C1177.29 360.786 1132.5 323.906 1123.94 264.978C1114.78 196.829 1161.76 140.306 1230.64 132.89H1230.44ZM1241.99 271.993C1284.39 275.4 1325 202.642 1238.6 213.666C1197.4 218.877 1201.38 280.01 1241.99 271.993Z" fill="#FF5B4A"/>
</svg>
