<svg width="1440" height="439" viewBox="0 0 1440 439" fill="none" xmlns="http://www.w3.org/2000/svg">
<path d="M1377.92 93.441C1334.65 126.944 1303.76 170.474 1252.43 196.467C1182.19 232.046 1079.8 224.104 1020.29 178.457C964.928 135.985 946.88 68.455 882.643 34.0889C721.968 -51.8519 554.066 115.386 389.729 101.455C312.683 94.9204 249.145 53.0956 196.592 9.45219C144.012 -34.1912 95.0665 89.0435 26.6877 61.0781C18.1713 57.6055 9.22963 54.5644 0 51.9857V274.39C22.2718 280.78 43.2544 289.667 62.2623 301.482C179.093 374.067 154.682 243.152 226.75 334.887C287.709 412.496 424.892 456.016 541.805 432.725C670.938 406.999 685.049 371.819 781.611 313.607C862.428 264.899 940.16 267.611 1020.43 299.501C1100.29 331.237 1190.09 331.825 1281.79 318.86C1332.97 311.627 1381.66 267.069 1433.73 267.747C1435.83 267.778 1437.92 267.84 1440 267.932V61.3558C1418.73 67.5817 1397.79 78.0611 1377.93 93.441H1377.92ZM292.372 243.1C267.275 254.535 247.006 247.415 243.851 224.72C243.083 219.203 245.017 213.245 249.31 208.858C251.874 206.227 255.289 204.162 259.472 203.073C284.596 196.58 319.965 230.484 292.372 243.1ZM312.669 194.762C314.068 193.087 316.125 191.464 318.909 189.933C332.774 182.33 362.397 185.741 352.563 208.241C342.991 230.135 299.421 210.522 312.669 194.762ZM357.734 388.876C346.433 381.859 338.781 374.565 334.132 367.301C301.711 316.672 415.553 267.84 461.66 329.041C501.938 382.506 417.253 425.842 357.734 388.876ZM562.87 101.362C564.516 96.4204 570.619 93.6362 577.119 93.0712C585.718 92.3212 594.44 95.8245 595.51 102.811C598.184 120.389 556.054 121.848 562.87 101.372V101.362ZM635.089 114.256C625.969 109.972 623.363 101.701 625.42 94.0985C628.149 84.0199 639.464 75.9035 654.042 78.1432C690.713 83.7733 672.926 132.019 635.089 114.256Z" fill="#73C6E4"/>
</svg>
