<svg width="1440" height="439" viewBox="0 0 1440 439" fill="none" xmlns="http://www.w3.org/2000/svg">
<path d="M62.084 345.559C105.352 312.056 136.236 268.526 187.568 242.533C257.812 206.954 360.202 214.896 419.708 260.543C475.072 303.015 493.12 370.545 557.357 404.911C718.032 490.852 885.934 323.614 1050.27 337.545C1127.32 344.08 1190.85 385.904 1243.41 429.548C1295.99 473.191 1344.93 349.956 1413.31 377.922C1421.83 381.395 1430.77 384.436 1440 387.014V164.61C1417.73 158.22 1396.75 149.333 1377.74 137.518C1260.91 64.9329 1285.32 195.848 1213.25 104.113C1152.29 26.5042 1015.11 -17.0159 898.195 6.27496C769.062 32.0007 754.951 67.1812 658.389 125.393C577.572 174.101 499.84 171.389 419.571 139.499C339.713 107.763 249.913 107.175 158.206 120.14C107.025 127.373 58.3401 171.931 6.26746 171.253C4.16919 171.222 2.08459 171.16 0 171.068V377.644C21.2706 371.418 42.2124 360.939 62.0704 345.559H62.084ZM1147.63 195.9C1172.72 184.465 1192.99 191.585 1196.15 214.28C1196.92 219.797 1194.98 225.755 1190.69 230.142C1188.13 232.773 1184.71 234.838 1180.53 235.927C1155.4 242.42 1120.04 208.516 1147.63 195.9ZM1127.33 244.238C1125.93 245.913 1123.88 247.536 1121.09 249.067C1107.23 256.67 1077.6 253.259 1087.44 230.759C1097.01 208.865 1140.58 228.478 1127.33 244.238ZM1082.27 50.1238C1093.57 57.1408 1101.22 64.4353 1105.87 71.6989C1138.29 122.328 1024.45 171.16 978.34 109.959C938.062 56.4936 1022.75 13.1584 1082.27 50.1238ZM877.13 337.638C875.484 342.58 869.381 345.364 862.881 345.929C854.282 346.679 845.56 343.175 844.49 336.189C841.816 318.611 883.946 317.152 877.13 337.628V337.638ZM804.911 324.744C814.031 329.028 816.637 337.299 814.58 344.901C811.851 354.98 800.536 363.096 785.958 360.857C749.287 355.227 767.074 306.981 804.911 324.744Z" fill="#0075CE"/>
</svg>
